<?xml version="1.0" encoding="UTF-8" standalone="no"?>
<svg
   xmlns:dc="http://purl.org/dc/elements/1.1/"
   xmlns:cc="http://creativecommons.org/ns#"
   xmlns:rdf="http://www.w3.org/1999/02/22-rdf-syntax-ns#"
   xmlns:svg="http://www.w3.org/2000/svg"
   xmlns="http://www.w3.org/2000/svg"
   xmlns:sodipodi="http://sodipodi.sourceforge.net/DTD/sodipodi-0.dtd"
   xmlns:inkscape="http://www.inkscape.org/namespaces/inkscape"
   sodipodi:docname="header.svg"
   inkscape:version="1.0 (4035a4fb49, 2020-05-01)"
   inkscape:export-ydpi="96"
   inkscape:export-xdpi="96"
   inkscape:export-filename="/home/matej/workspace/local/www/mestozensk/header.svg.png"
   id="svg8"
   version="1.1"
   viewBox="0 0 198.4375 22.489584"
   height="22.489584mm"
   width="198.4375mm">
  <defs
     id="defs2">
    <style
       id="style10">.cls-1{opacity:0.5;}.cls-2{fill:#daaaff;}.cls-3{fill:#fff;}</style>
  </defs>
  <sodipodi:namedview
     inkscape:window-maximized="1"
     inkscape:window-y="0"
     inkscape:window-x="0"
     inkscape:window-height="1016"
     inkscape:window-width="1920"
     showgrid="false"
     inkscape:document-rotation="0"
     inkscape:current-layer="layer1"
     inkscape:document-units="mm"
     inkscape:cy="165.32465"
     inkscape:cx="487.96872"
     inkscape:zoom="1.4"
     inkscape:pageshadow="2"
     inkscape:pageopacity="0.0"
     borderopacity="1.0"
     bordercolor="#666666"
     pagecolor="#ffffff"
     id="base" />
  <metadata
     id="metadata5">
    <rdf:RDF>
      <cc:Work
         rdf:about="">
        <dc:format>image/svg+xml</dc:format>
        <dc:type
           rdf:resource="http://purl.org/dc/dcmitype/StillImage" />
        <dc:title></dc:title>
      </cc:Work>
    </rdf:RDF>
  </metadata>
  <g
     transform="translate(353.14465,-20.794739)"
     id="layer1"
     inkscape:groupmode="layer"
     inkscape:label="Layer 1">
    <rect
       style="stroke-width:0.264583"
       class="cls-2"
       x="-353.14465"
       y="20.794739"
       width="198.4375"
       height="22.489584"
       id="rect16" />
    <path
       style="stroke-width:0.264583"
       class="cls-3"
       d="m -319.15364,36.637988 a 2.76225,2.76225 0 0 1 -1.524,0.441855 c -0.64823,0 -1.10332,-0.264584 -1.10332,-0.669396 0,-0.264584 0.28311,-0.4445 0.60325,-0.4445 a 4.0745833,4.0745833 0 0 1 1.21709,0.227541 c 0.79375,-0.693208 1.42081,-2.151062 1.95527,-3.77825 0.39952,-1.227666 0.79375,-2.058458 1.21973,-2.537354 a 5.0508958,5.0508958 0 0 0 -0.58209,-0.03175 c -1.87589,0 -3.96875,1.386417 -3.96875,3.082396 0,0.762 0.32809,1.307042 1.15888,1.307042 a 0.91545832,0.91545832 0 0 0 0.98954,-0.841375 c 0,-0.283104 -0.19315,-0.306917 -0.19315,-0.529167 a 0.26458333,0.26458333 0 0 1 0.28575,-0.283104 c 0.16934,0 0.3175,0.124354 0.3175,0.375708 a 1.4419791,1.4419791 0 0 1 -1.47902,1.444625 c -0.95514,0 -1.71714,-0.489479 -1.71714,-1.537229 0,-1.934104 2.55852,-3.175 4.59581,-3.175 0.25135,0 0.50006,0.02381 0.73819,0.04498 a 1.3467291,1.3467291 0 0 1 0.92339,-0.386291 c 0.3175,0 0.61384,0.0926 0.61384,0.206375 a 0.19579166,0.19579166 0 0 1 -0.17198,0.179916 c -0.11377,0 -0.13494,-0.248708 -0.44186,-0.248708 a 0.67204166,0.67204166 0 0 0 -0.54768,0.306917 c 1.68539,0.306916 2.7305,1.389062 2.7305,3.151187 0,2.309813 -1.9103,3.937 -3.70417,3.937 a 5.7784999,5.7784999 0 0 1 -1.91558,-0.243418 z m -1.93411,-0.01323 a 1.6536458,1.6536458 0 0 0 0.94456,-0.296333 2.9104166,2.9104166 0 0 0 -0.89958,-0.179917 c -0.3175,0 -0.46567,0.08996 -0.46567,0.238125 0,0.148167 0.19315,0.238125 0.42069,0.238125 z m 4.72281,-6.6675 c -0.28575,0.529167 -0.47889,1.457855 -0.79375,2.645834 -0.45508,1.651 -0.84402,3.13002 -1.79916,3.902604 a 3.7465,3.7465 0 0 0 1.32291,0.182562 c 1.87855,0 3.09563,-1.764771 3.09563,-4.061354 -0.005,-1.291166 -0.44715,-2.3495 -1.82563,-2.669646 z"
       id="path18" />
    <path
       style="stroke-width:0.264583"
       class="cls-3"
       d="m -312.40677,35.748988 c 0,0.193146 0.0794,0.28575 0.23813,0.28575 0.21695,0 0.52916,-0.341312 0.52916,-0.341312 l 0.0794,0.07937 c 0,0 -0.60854,0.664104 -1.13242,0.664104 a 0.52916666,0.52916666 0 0 1 -0.55562,-0.566208 c 0,-0.502709 0.61383,-1.195917 0.61383,-1.640417 0,-0.100542 -0.0238,-0.169333 -0.12436,-0.169333 -0.10054,0 -0.47889,0.306916 -0.47889,0.306916 l -0.0688,-0.0926 c 0.18256,-0.15875 0.70643,-0.624416 1.07156,-0.624416 0.26458,0 0.42069,0.137583 0.42069,0.365125 0.003,0.49477 -0.59267,1.267354 -0.59267,1.73302 z m 0.79375,-3.704166 a 0.26458333,0.26458333 0 0 1 0.2831,0.28575 c 0,0.306916 -0.26458,0.682625 -0.51064,0.682625 a 0.29897916,0.29897916 0 0 1 -0.32015,-0.320146 0.69849999,0.69849999 0 0 1 0.53975,-0.653521 z"
       id="path20" />
    <path
       style="stroke-width:0.264583"
       class="cls-3"
       d="m -308.31102,36.034738 c 0.21696,0 0.52917,-0.341312 0.52917,-0.341312 l 0.0688,0.07937 c 0,0 -0.59796,0.664104 -0.98425,0.664104 a 0.49741666,0.49741666 0 0 1 -0.52917,-0.510646 1.7065625,1.7065625 0 0 1 0.0344,-0.410104 c -0.14817,0.330729 -0.72761,0.92075 -1.2409,0.92075 a 0.79374999,0.79374999 0 0 1 -0.81756,-0.841375 c 0,-1.0795 1.02394,-1.944687 1.77271,-1.944687 a 0.62177083,0.62177083 0 0 1 0.69585,0.529166 0.71172916,0.71172916 0 0 1 0.64823,-0.455083 1.0768542,1.0768542 0 0 0 0.55563,-0.198438 l 0.0582,0.113771 a 1.4472708,1.4472708 0 0 0 -0.51329,0.510646 5.5033333,5.5033333 0 0 0 -0.47625,1.672167 0.18520833,0.18520833 0 0 0 0.19844,0.211666 z m -0.82021,-0.809625 a 3.1988125,3.1988125 0 0 0 0.23019,-0.851958 c 0,-0.264583 -0.11377,-0.547687 -0.45508,-0.547687 -0.57944,0 -1.0795,0.992187 -1.0795,1.674812 0,0.420688 0.12435,0.635 0.38629,0.635 0.26194,0 0.71437,-0.492125 0.9181,-0.910167 z"
       id="path22" />
    <path
       style="stroke-width:0.264583"
       class="cls-3"
       d="m -305.94564,31.301343 a 0.64029166,0.64029166 0 0 1 -0.14817,0 1.9896666,1.9896666 0 0 1 -0.39688,-0.04498 l 0.0794,-0.124355 a 1.1218333,1.1218333 0 0 0 0.29633,0.0344 2.8654375,2.8654375 0 0 0 1.14829,-0.264583 l 0.045,0.08996 a 1.9155833,1.9155833 0 0 0 -0.52916,0.568854 c -0.3175,0.545042 -1.2065,3.561292 -1.2065,4.119563 0,0.238125 0.10318,0.341312 0.28575,0.341312 0.26458,0 0.57943,-0.341312 0.57943,-0.341312 l 0.0794,0.07937 c 0,0 -0.61913,0.677333 -1.12977,0.677333 -0.43392,0 -0.58209,-0.227542 -0.58209,-0.624417 0,-0.4445 0.54769,-2.137833 0.97896,-3.857625 a 1.0583333,1.0583333 0 0 1 0.50007,-0.65352 z"
       id="path24" />
    <path
       style="stroke-width:0.264583"
       class="cls-3"
       d="m -302.50871,34.645676 a 1.8309166,1.8309166 0 0 1 -1.70656,1.820333 c -0.67204,0 -1.14829,-0.330729 -1.14829,-1.000125 0,-0.968375 0.74877,-1.833562 1.68275,-1.833562 0.70644,0 1.1721,0.375708 1.1721,1.013354 z m -2.14048,1.058333 c 0,0.341313 0.17198,0.592667 0.4445,0.592667 0.52917,0 0.98955,-1.058333 0.98955,-1.981729 0,-0.341313 -0.16934,-0.529167 -0.46567,-0.529167 -0.57944,0.0053 -0.96838,0.918104 -0.96838,1.918229 z"
       id="path26" />
    <path
       style="stroke-width:0.264583"
       class="cls-3"
       d="m -299.37604,35.169551 c -0.13494,0.529167 -0.26458,1.399646 -0.42069,2.206625 -0.18256,0.955146 -0.79375,1.5875 -1.72773,1.5875 -0.64823,0 -1.11654,-0.365125 -1.11654,-0.955146 a 0.55562499,0.55562499 0 0 1 0.50006,-0.579437 0.26458333,0.26458333 0 0 1 0.28575,0.264583 c 0,0.3175 -0.3175,0.386292 -0.3175,0.717021 a 0.42862499,0.42862499 0 0 0 0.46567,0.407458 c 0.84138,0 1.28588,-1.772708 1.61396,-3.344333 -0.15875,0.306916 -0.72761,0.955146 -1.26206,0.955146 a 0.79374999,0.79374999 0 0 1 -0.8308,-0.841375 c 0,-1.0795 1.02394,-1.944688 1.77536,-1.944688 a 0.61912499,0.61912499 0 0 1 0.69321,0.529167 0.71172916,0.71172916 0 0 1 0.64823,-0.455084 1.0795,1.0795 0 0 0 0.54768,-0.203729 l 0.0556,0.113771 a 1.8309166,1.8309166 0 0 0 -0.51065,0.510646 3.2252708,3.2252708 0 0 0 -0.39952,1.031875 z m -0.69321,0.05556 a 3.2993541,3.2993541 0 0 0 0.22754,-0.851958 c 0,-0.264583 -0.11377,-0.547687 -0.45508,-0.547687 -0.57944,0 -1.0795,0.992187 -1.0795,1.674812 0,0.420688 0.12435,0.635 0.38629,0.635 0.26194,0 0.71173,-0.492125 0.91546,-0.910167 z"
       id="path28" />
    <path
       style="stroke-width:0.264583"
       class="cls-3"
       d="m -296.60321,35.965947 a 1.8838333,1.8838333 0 0 1 0.09,-0.500063 c -0.42069,0.465667 -0.95514,0.976313 -1.50283,0.976313 a 0.52916666,0.52916666 0 0 1 -0.55563,-0.566209 c 0,-0.502708 0.61384,-1.195916 0.61384,-1.640416 0,-0.100542 -0.0238,-0.169334 -0.12436,-0.169334 -0.10054,0 -0.47889,0.306917 -0.47889,0.306917 l -0.0688,-0.0926 c 0.18257,-0.15875 0.70644,-0.624417 1.05834,-0.624417 0.26458,0 0.39952,0.137584 0.39952,0.365125 0,0.455084 -0.56886,1.262063 -0.56886,1.727729 0,0.193146 0.0794,0.28575 0.20373,0.28575 0.26459,0 0.60325,-0.296333 1.01336,-0.79375 0.18256,-0.227541 0.22754,-0.672041 0.36512,-0.957791 a 0.82814582,0.82814582 0 0 1 0.68263,-0.529167 0.94456249,0.94456249 0 0 0 0.59796,-0.227542 l 0.0688,0.113771 a 1.2594167,1.2594167 0 0 0 -0.51065,0.510646 5.2916666,5.2916666 0 0 0 -0.47889,1.706563 c 0,0.103187 0.045,0.171979 0.14816,0.171979 0.21696,0 0.52917,-0.341313 0.52917,-0.341313 l 0.0688,0.07937 c 0,0 -0.59531,0.669396 -0.9816,0.669396 a 0.50535416,0.50535416 0 0 1 -0.56886,-0.470958 z"
       id="path30" />
    <path
       style="stroke-width:0.264583"
       class="cls-3"
       d="m -293.01017,33.656134 c 0.45509,0 0.74084,0.193146 0.74084,0.510646 0,0.568854 -0.60325,0.978958 -1.28588,0.978958 -0.11377,0 -0.22754,-0.02117 -0.22754,-0.08996 0,-0.06879 0.0238,-0.04498 0.0556,-0.04498 a 1.095375,1.095375 0 0 0 0.96573,-1.013354 0.17197916,0.17197916 0 0 0 -0.18256,-0.193146 c -0.47625,0 -1.05833,0.910167 -1.05833,1.613958 0,0.513292 0.21696,0.73025 0.60325,0.73025 0.43391,0 0.82021,-0.455083 0.82021,-0.455083 l 0.0688,0.07937 c 0,0 -0.52917,0.669396 -1.28588,0.669396 -0.52916,0 -1.01335,-0.264584 -1.01335,-0.886354 a 2.0028958,2.0028958 0 0 1 1.79916,-1.899709 z"
       id="path32" />
    <path
       style="stroke-width:0.264583"
       class="cls-3"
       d="m -287.52535,34.645676 a 1.8309166,1.8309166 0 0 1 -1.70657,1.820333 c -0.67204,0 -1.14829,-0.330729 -1.14829,-1.000125 0,-0.968375 0.74877,-1.833562 1.68275,-1.833562 0.6985,0 1.17211,0.375708 1.17211,1.013354 z m -2.14048,1.058333 c 0,0.341313 0.17198,0.592667 0.4445,0.592667 0.52916,0 0.98954,-1.058333 0.98954,-1.981729 0,-0.341313 -0.16933,-0.529167 -0.46567,-0.529167 -0.57944,0.0053 -0.96837,0.918104 -0.96837,1.918229 z"
       id="path34" />
    <path
       style="stroke-width:0.264583"
       class="cls-3"
       d="m -286.77394,33.359801 h 0.22754 c 0,0 0.12436,-0.510646 0.26459,-1.023938 0.26458,-0.910166 0.93133,-1.251479 1.41023,-1.251479 a 0.62706249,0.62706249 0 0 1 0.68262,0.568855 0.42333333,0.42333333 0 0 1 -0.4101,0.444499 c -0.19315,0 -0.29634,-0.103187 -0.29634,-0.227541 0.0132,-0.227542 0.19315,-0.3175 0.19315,-0.478896 0,-0.100542 -0.0556,-0.15875 -0.13494,-0.15875 -0.35189,0 -0.59266,0.433917 -0.77258,1.182687 -0.082,0.320146 -0.19579,0.944563 -0.19579,0.944563 h 0.79375 l -0.0767,0.166687 h -0.74083 c -0.20373,1.0795 -0.39688,2.116667 -0.762,2.820459 a 2.0214166,2.0214166 0 0 1 -1.67217,1.029229 v -0.07937 c 0.89958,-0.296333 1.39964,-2.606146 1.64835,-3.765021 h -0.26458 z"
       id="path36" />
    <path
       style="stroke-width:0.264583"
       class="cls-3"
       d="m -283.03273,33.359801 h 0.26458 c 0.15875,-0.558271 0.39688,-0.79375 0.81757,-0.899583 a 1.8838333,1.8838333 0 0 0 0.62706,-0.224896 l 0.0556,0.113771 a 1.3917083,1.3917083 0 0 0 -0.54504,0.529166 2.5823333,2.5823333 0 0 0 -0.22754,0.489479 h 0.82021 l -0.0926,0.17198 h -0.79375 c -0.21696,0.738187 -0.50271,1.706562 -0.50271,2.069041 0,0.28575 0.0688,0.433917 0.29634,0.433917 a 1.0980208,1.0980208 0 0 0 0.62706,-0.341313 l 0.0661,0.07937 c 0,0 -0.60325,0.656167 -1.16152,0.656167 a 0.52916666,0.52916666 0 0 1 -0.60325,-0.590021 c 0,-0.399521 0.26458,-1.322916 0.55827,-2.320396 h -0.29634 z"
       id="path38" />
    <path
       style="stroke-width:0.264583"
       class="cls-3"
       d="m -280.09585,34.793843 c 0.3757,-0.513292 1.18268,-1.137709 1.75154,-1.137709 a 0.39422916,0.39422916 0 0 1 0.43127,0.399521 c 0,0.555625 -0.52917,1.058333 -0.52917,1.68275 a 0.26458333,0.26458333 0 0 0 0.26459,0.28575 c 0.21695,0 0.52916,-0.341312 0.52916,-0.341312 l 0.082,0.07937 c 0,0 -0.57414,0.674687 -1.11918,0.674687 a 0.54504166,0.54504166 0 0 1 -0.58209,-0.529167 c 0,-0.568854 0.62706,-1.182687 0.62706,-1.63777 a 0.19314583,0.19314583 0 0 0 -0.21695,-0.216959 c -0.22755,0 -0.82021,0.386292 -1.19327,0.955146 a 3.4686875,3.4686875 0 0 0 -0.4445,1.299104 c 0,0.124354 -0.0582,0.169334 -0.15875,0.169334 -0.10055,0 -0.26459,-0.04498 -0.4445,-0.04498 a 0.76464582,0.76464582 0 0 0 -0.33073,0.08996 0.04233333,0.04233333 0 0 1 -0.045,-0.04498 c 0,-0.04498 0.11377,-0.124355 0.20373,-0.306917 a 6.4505416,6.4505416 0 0 0 0.45508,-1.410229 c 0.30956,-1.116542 0.66146,-2.513542 0.74083,-2.775479 a 1.143,1.143 0 0 1 0.48948,-0.672042 0.60324999,0.60324999 0 0 1 -0.13758,0 2.2145625,2.2145625 0 0 1 -0.41011,-0.04498 l 0.0714,-0.121708 a 1.0292292,1.0292292 0 0 0 0.29634,0.03439 2.9104166,2.9104166 0 0 0 1.14829,-0.264583 l 0.045,0.08996 a 1.7806458,1.7806458 0 0 0 -0.52917,0.568855 c -0.27781,0.478895 -0.99483,3.219979 -0.99483,3.219979 z"
       id="path40" />
    <path
       style="stroke-width:0.264583"
       class="cls-3"
       d="m -275.54502,33.656134 c 0.45508,0 0.73819,0.193146 0.73819,0.510646 0,0.568854 -0.60325,0.978958 -1.28588,0.978958 -0.11377,0 -0.22754,-0.02117 -0.22754,-0.08996 0,-0.06879 0.0238,-0.04498 0.0582,-0.04498 a 1.0927292,1.0927292 0 0 0 0.96308,-1.013354 0.17197916,0.17197916 0 0 0 -0.18256,-0.193146 c -0.47625,0 -1.05833,0.910167 -1.05833,1.613958 0,0.513292 0.21695,0.73025 0.60325,0.73025 0.43391,0 0.8202,-0.455083 0.8202,-0.455083 l 0.0688,0.07937 c 0,0 -0.52917,0.669396 -1.28588,0.669396 -0.52917,0 -1.01335,-0.264584 -1.01335,-0.886354 a 2.0028958,2.0028958 0 0 1 1.80181,-1.899709 z"
       id="path42" />
    <path
       style="stroke-width:0.264583"
       class="cls-3"
       d="m -270.06285,34.645676 a 1.8309166,1.8309166 0 0 1 -1.70657,1.820333 c -0.67204,0 -1.14829,-0.330729 -1.14829,-1.000125 0,-0.968375 0.75142,-1.833562 1.68275,-1.833562 0.6985,0 1.17211,0.375708 1.17211,1.013354 z m -2.13784,1.058333 c 0,0.341313 0.16934,0.592667 0.44186,0.592667 0.52916,0 0.98954,-1.058333 0.98954,-1.981729 0,-0.341313 -0.16933,-0.529167 -0.46567,-0.529167 -0.57944,0.0053 -0.96573,0.918104 -0.96573,1.918229 z"
       id="path44" />
    <path
       style="stroke-width:0.264583"
       class="cls-3"
       d="m -267.09687,31.005009 a 1.9155833,1.9155833 0 0 0 -0.52917,0.568855 c -0.26458,0.478895 -0.59002,1.661583 -0.89694,2.788708 a 1.8917708,1.8917708 0 0 1 1.28323,-0.706438 c 0.4101,0 0.73025,0.227542 0.73025,0.865188 0,0.944562 -0.67204,1.920875 -1.5875,1.920875 a 0.95779165,0.95779165 0 0 1 -0.95515,-0.579438 c -0.50006,0.558271 -0.86518,0.579438 -1.08214,0.579438 v -0.06615 c 0.42069,-0.127 0.61383,-1.058333 0.93398,-2.185458 0.32014,-1.127125 0.48948,-1.852084 0.57944,-2.217209 a 1.0583333,1.0583333 0 0 1 0.48947,-0.672041 0.59266666,0.59266666 0 0 1 -0.13758,0 2.1669375,2.1669375 0 0 1 -0.40746,-0.04498 l 0.09,-0.124355 a 1.0292292,1.0292292 0 0 0 0.29633,0.0344 2.9104166,2.9104166 0 0 0 1.1483,-0.264583 z m -1.54517,3.799417 a 3.1406041,3.1406041 0 0 0 -0.22754,0.865187 0.52916666,0.52916666 0 0 0 0.54504,0.529167 c 0.56885,0 1.00012,-1.103312 1.00012,-1.785937 0,-0.3175 -0.10054,-0.478896 -0.3175,-0.478896 -0.30427,0.0053 -0.80433,0.439208 -0.99748,0.870479 z"
       id="path46" />
    <path
       style="stroke-width:0.264583"
       class="cls-3"
       d="m -265.70517,34.555718 a 0.94720832,0.94720832 0 0 1 0.4445,-0.672042 0.66145832,0.66145832 0 0 1 -0.14816,0 1.9976041,1.9976041 0 0 1 -0.39952,-0.04498 l 0.0794,-0.113771 a 1.4605,1.4605 0 0 0 0.29633,0.02381 2.8204583,2.8204583 0 0 0 1.1483,-0.264583 l 0.0476,0.08996 a 2.1166666,2.1166666 0 0 0 -0.52917,0.568855 3.7200416,3.7200416 0 0 0 -0.36247,1.013354 c -0.13759,0.529166 -0.26459,1.399646 -0.42069,2.206625 -0.18256,0.955146 -0.80698,1.5875 -1.74096,1.5875 -0.64823,0 -1.10331,-0.365125 -1.10331,-0.955146 a 0.55562499,0.55562499 0 0 1 0.50271,-0.560917 0.26458333,0.26458333 0 0 1 0.26458,0.264584 c 0,0.3175 -0.3175,0.386291 -0.3175,0.71702 a 0.43127083,0.43127083 0 0 0 0.47625,0.407459 c 1.01071,0.0079 1.46579,-2.846917 1.76212,-4.267729 z m 1.30705,-2.516188 a 0.26458333,0.26458333 0 0 1 0.28575,0.28575 c 0,0.306917 -0.25136,0.682625 -0.5133,0.682625 a 0.29897916,0.29897916 0 0 1 -0.3175,-0.320146 0.69849999,0.69849999 0 0 1 0.54505,-0.648229 z"
       id="path48" />
    <path
       style="stroke-width:0.264583"
       class="cls-3"
       d="m -262.67833,33.656134 c 0.45508,0 0.73818,0.193146 0.73818,0.510646 0,0.568854 -0.60325,0.978958 -1.28587,0.978958 -0.11377,0 -0.22754,-0.02117 -0.22754,-0.08996 0,-0.06879 0.0238,-0.04498 0.0582,-0.04498 a 1.0927292,1.0927292 0 0 0 0.96573,-1.013354 0.16933333,0.16933333 0 0 0 -0.17992,-0.193146 c -0.4789,0 -1.05833,0.910167 -1.05833,1.613958 0,0.513292 0.21431,0.73025 0.60325,0.73025 0.43127,0 0.81756,-0.455083 0.81756,-0.455083 l 0.0688,0.07937 c 0,0 -0.52917,0.669396 -1.28588,0.669396 -0.52916,0 -1.01335,-0.264584 -1.01335,-0.886354 a 2.0028958,2.0028958 0 0 1 1.79917,-1.899709 z"
       id="path50" />
    <path
       style="stroke-width:0.264583"
       class="cls-3"
       d="m -258.96887,34.224988 a 0.38364583,0.38364583 0 0 1 -0.37571,0.420688 c -0.20638,0 -0.32015,-0.113771 -0.32015,-0.227542 0,-0.182562 0.18256,-0.306916 0.18256,-0.455083 a 0.14816666,0.14816666 0 0 0 -0.15875,-0.15875 c -0.60325,0 -1.1721,0.806979 -1.1721,1.5875 0,0.510646 0.21696,0.762 0.63765,0.762 0.42068,0 0.79375,-0.455083 0.79375,-0.455083 l 0.0688,0.07937 c 0,0 -0.52917,0.669395 -1.28588,0.669395 -0.47625,0 -1.01071,-0.264583 -1.01071,-0.886354 0,-1.193271 1.15888,-1.899708 1.9103,-1.899708 0.42068,-0.0053 0.73025,0.22225 0.73025,0.563562 z"
       id="path52" />
    <path
       style="stroke-width:0.264583"
       class="cls-3"
       d="m -258.31006,33.359801 h 0.24871 c 0.16139,-0.558271 0.39952,-0.79375 0.8202,-0.899583 a 1.8785416,1.8785416 0 0 0 0.62442,-0.224896 l 0.0582,0.113771 a 1.3731875,1.3731875 0 0 0 -0.54504,0.529166 2.428875,2.428875 0 0 0 -0.22754,0.489479 h 0.81756 l -0.09,0.17198 h -0.79375 c -0.21696,0.738187 -0.50006,1.706562 -0.50006,2.069041 0,0.28575 0.0688,0.433917 0.29633,0.433917 a 1.0874375,1.0874375 0 0 0 0.62442,-0.341313 l 0.0688,0.07937 c 0,0 -0.59531,0.656167 -1.15358,0.656167 a 0.52916666,0.52916666 0 0 1 -0.60061,-0.590021 c 0,-0.399521 0.26459,-1.322916 0.55563,-2.320396 h -0.29634 z"
       id="path54" />
    <path
       style="stroke-width:0.264583"
       class="cls-3"
       d="m -256.62731,35.738405 a 0.42862499,0.42862499 0 0 1 0.4445,-0.433917 0.26458333,0.26458333 0 0 1 0.26458,0.264584 c 0,0.227541 -0.19314,0.248708 -0.19314,0.465666 0,0.148167 0.11377,0.283105 0.36512,0.283105 a 0.54239583,0.54239583 0 0 0 0.52917,-0.545042 c 0,-0.590021 -0.91017,-0.672042 -0.91017,-1.322917 0,-0.568854 0.6694,-0.841375 1.19327,-0.841375 0.42069,0 0.72761,0.227542 0.72761,0.568854 a 0.37041666,0.37041666 0 0 1 -0.36248,0.410105 c -0.17198,0 -0.29634,-0.103188 -0.29634,-0.227542 0,-0.182563 0.14817,-0.238125 0.14817,-0.433917 0,-0.124354 -0.0794,-0.193146 -0.22754,-0.193146 a 0.47095833,0.47095833 0 0 0 -0.50006,0.420688 c 0,0.661458 0.98954,0.79375 0.98954,1.399646 0,0.558271 -0.55827,0.910166 -1.2065,0.910166 -0.56621,0.01323 -0.96573,-0.269875 -0.96573,-0.724958 z"
       id="path56" />
    <path
       style="stroke-width:0.264583"
       class="cls-3"
       d="m -252.15585,36.57978 a 0.13758333,0.13758333 0 0 1 -0.13759,0.06879 c -0.17991,0 -0.26458,0 -0.26458,-0.04498 0,-0.04498 0.0238,-0.05821 0.0344,-0.103188 l 2.7887,-5.802312 a 0.13758333,0.13758333 0 0 1 0.13494,-0.07937 c 0.17198,0 0.26458,0 0.26458,0.04498 a 0.26458333,0.26458333 0 0 1 -0.0318,0.124354 z"
       id="path58" />
    <path
       style="stroke-width:0.264583"
       class="cls-3"
       d="m -246.37735,35.783384 a 1.11125,1.11125 0 0 0 0.68262,0.568854 l 0.0132,0.08996 h -0.61648 a 0.71172916,0.71172916 0 0 1 -0.71437,-0.373063 l -0.45509,-0.955146 a 8.9746666,8.9746666 0 0 0 -0.31485,1.182688 c 0,0.124354 -0.045,0.169333 -0.14817,0.169333 -0.10319,0 -0.24871,-0.04498 -0.44185,-0.04498 a 0.77787499,0.77787499 0 0 0 -0.34131,0.08996 0.04233333,0.04233333 0 0 1 -0.0476,-0.04498 c 0,-0.04498 0.11377,-0.137583 0.20638,-0.264583 a 8.3105624,8.3105624 0 0 0 0.52916,-1.637771 l 0.65881,-2.582333 a 1.1244792,1.1244792 0 0 1 0.50007,-0.672042 0.62706249,0.62706249 0 0 1 -0.14552,0 2.1404791,2.1404791 0 0 1 -0.39952,-0.04498 l 0.0794,-0.124354 a 1.1641667,1.1641667 0 0 0 0.30692,0.0344 2.9580416,2.9580416 0 0 0 1.15093,-0.264584 l 0.045,0.08996 a 1.8758958,1.8758958 0 0 0 -0.54768,0.568854 c -0.26459,0.478896 -0.80698,2.513541 -1.05834,3.389312 0.55827,-0.624416 1.2065,-1.307041 1.651,-1.307041 a 0.37041666,0.37041666 0 0 1 0.36513,0.375708 0.40745833,0.40745833 0 0 1 -0.38894,0.4445 0.26458333,0.26458333 0 0 1 -0.29369,-0.264583 c 0,-0.06615 -0.0344,-0.100542 -0.082,-0.100542 -0.20373,0 -0.6006,0.375708 -0.73819,0.568854 0,-0.0053 0.25136,0.574146 0.54505,1.108604 z"
       id="path60" />
    <path
       style="stroke-width:0.264583"
       class="cls-3"
       d="m -242.47475,34.645676 a 1.8309166,1.8309166 0 0 1 -1.70656,1.820333 c -0.6694,0 -1.14829,-0.330729 -1.14829,-1.000125 0,-0.968375 0.75141,-1.833562 1.68275,-1.833562 0.70643,0 1.1721,0.375708 1.1721,1.013354 z m -2.13783,1.058333 c 0,0.341313 0.16933,0.592667 0.4445,0.592667 0.52916,0 0.98954,-1.058333 0.98954,-1.981729 0,-0.341313 -0.17198,-0.529167 -0.46831,-0.529167 -0.57944,0.0053 -0.96044,0.918104 -0.96044,1.918229 z"
       id="path62" />
    <path
       style="stroke-width:0.264583"
       class="cls-3"
       d="m -236.88675,34.076822 c 0,0.545041 -0.52917,1.023937 -0.52917,1.672166 0,0.193146 0.0794,0.28575 0.23813,0.28575 0.26458,0 0.55827,-0.341312 0.55827,-0.341312 l 0.0794,0.07937 c 0,0 -0.54239,0.664104 -1.13241,0.664104 a 0.52916666,0.52916666 0 0 1 -0.58473,-0.529167 c 0,-0.568854 0.63764,-1.182687 0.63764,-1.63777 0,-0.148167 -0.0688,-0.216959 -0.20372,-0.216959 -0.24078,0 -0.73025,0.320146 -1.10332,0.875771 a 4.3814999,4.3814999 0 0 0 -0.46831,1.36525 c 0,0.127 -0.045,0.15875 -0.14817,0.15875 -0.10318,0 -0.2487,-0.03175 -0.43127,-0.03175 a 1.1244792,1.1244792 0 0 0 -0.2831,0.06615 c -0.0344,0 -0.0476,0 -0.0476,-0.04498 0,-0.04498 0.0926,-0.08996 0.15875,-0.264584 a 7.5115207,7.5115207 0 0 0 0.50271,-1.910291 c 0,-0.148167 -0.0688,-0.264584 -0.20637,-0.264584 -0.18257,0 -0.59002,0.354542 -0.97896,0.910167 a 4.4741041,4.4741041 0 0 0 -0.45508,1.36525 c 0,0.127 -0.0556,0.15875 -0.15875,0.15875 -0.10319,0 -0.23813,-0.03175 -0.44186,-0.03175 a 0.94191665,0.94191665 0 0 0 -0.35454,0.08996 0.05027083,0.05027083 0 0 1 -0.045,-0.04498 c 0,-0.04498 0.13758,-0.127 0.20638,-0.28575 a 8.2470624,8.2470624 0 0 0 0.6006,-1.934104 c 0,-0.100542 -0.045,-0.169333 -0.14817,-0.169333 -0.10318,0 -0.46566,0.306916 -0.46566,0.306916 l -0.0794,-0.0926 c 0.18256,-0.15875 0.70644,-0.624416 1.05833,-0.624416 0.26459,0 0.39953,0.137583 0.39953,0.365125 a 2.7013958,2.7013958 0 0 1 -0.19315,0.762 c 0.36248,-0.513292 0.93133,-1.127125 1.50019,-1.127125 a 0.42862499,0.42862499 0 0 1 0.48948,0.43127 3.175,3.175 0 0 1 -0.16934,0.79375 c 0.36248,-0.60325 1.17211,-1.227666 1.75154,-1.227666 a 0.42862499,0.42862499 0 0 1 0.44715,0.428625 z"
       id="path64" />
    <path
       style="stroke-width:0.264583"
       class="cls-3"
       d="m -235.31777,35.748988 c 0,0.193146 0.0794,0.28575 0.23812,0.28575 0.21696,0 0.52917,-0.341312 0.52917,-0.341312 l 0.0794,0.07937 c 0,0 -0.61119,0.664104 -1.14036,0.664104 a 0.52916666,0.52916666 0 0 1 -0.55562,-0.566208 c 0,-0.502709 0.61383,-1.195917 0.61383,-1.640417 0,-0.100542 -0.0238,-0.169333 -0.12435,-0.169333 -0.10055,0 -0.46302,0.312208 -0.46302,0.312208 l -0.0688,-0.0926 c 0.18257,-0.15875 0.70644,-0.624417 1.05834,-0.624417 0.26458,0 0.42333,0.137584 0.42333,0.365125 0.003,0.489479 -0.59002,1.262063 -0.59002,1.727729 z m 0.79375,-3.704166 a 0.26458333,0.26458333 0 0 1 0.2831,0.28575 c 0,0.306916 -0.26458,0.682625 -0.51064,0.682625 a 0.29897916,0.29897916 0 0 1 -0.33073,-0.325438 0.69849999,0.69849999 0 0 1 0.55033,-0.648229 z"
       id="path66" />
    <path
       style="stroke-width:0.264583"
       class="cls-3"
       d="m -234.20387,35.738405 a 0.42862499,0.42862499 0 0 1 0.4445,-0.433917 0.26458333,0.26458333 0 0 1 0.26458,0.264584 c 0,0.227541 -0.19315,0.248708 -0.19315,0.465666 0,0.148167 0.11377,0.283105 0.36513,0.283105 a 0.54239583,0.54239583 0 0 0 0.52916,-0.545042 c 0,-0.590021 -0.91016,-0.672042 -0.91016,-1.322917 0,-0.568854 0.66939,-0.841375 1.19327,-0.841375 0.42069,0 0.73025,0.227542 0.73025,0.568854 a 0.3730625,0.3730625 0 0 1 -0.36513,0.410105 c -0.17198,0 -0.29633,-0.103188 -0.29633,-0.227542 0,-0.182563 0.14817,-0.238125 0.14817,-0.433917 0,-0.124354 -0.0794,-0.193146 -0.22754,-0.193146 a 0.47095833,0.47095833 0 0 0 -0.50007,0.420688 c 0,0.661458 0.98954,0.79375 0.98954,1.399646 0,0.558271 -0.55827,0.910166 -1.2065,0.910166 -0.5662,0.01323 -0.96572,-0.269875 -0.96572,-0.724958 z"
       id="path68" />
    <path
       style="stroke-width:0.264583"
       class="cls-3"
       d="m -228.79844,34.224988 a 0.38364583,0.38364583 0 0 1 -0.37571,0.420688 c -0.20637,0 -0.32014,-0.113771 -0.32014,-0.227542 0,-0.182562 0.18256,-0.306916 0.18256,-0.455083 a 0.14816666,0.14816666 0 0 0 -0.15875,-0.15875 c -0.60325,0 -1.1721,0.806979 -1.1721,1.5875 0,0.510646 0.21696,0.762 0.63764,0.762 0.42069,0 0.79375,-0.455083 0.79375,-0.455083 l 0.0661,0.07937 c 0,0 -0.52917,0.669395 -1.28323,0.669395 -0.4789,0 -1.01335,-0.264583 -1.01335,-0.886354 0,-1.193271 1.15887,-1.899708 1.91029,-1.899708 0.42598,-0.0053 0.73289,0.22225 0.73289,0.563562 z"
       id="path70" />
    <path
       style="stroke-width:0.264583"
       class="cls-3"
       d="m -227.59194,34.793843 c 0.37307,-0.513292 1.18269,-1.137709 1.75154,-1.137709 a 0.39422916,0.39422916 0 0 1 0.43128,0.399521 c 0,0.555625 -0.52917,1.058333 -0.52917,1.68275 a 0.26458333,0.26458333 0 0 0 0.26458,0.28575 c 0.21696,0 0.52917,-0.341312 0.52917,-0.341312 l 0.0794,0.07937 c 0,0 -0.5715,0.674687 -1.11654,0.674687 a 0.54504166,0.54504166 0 0 1 -0.59266,-0.529167 c 0,-0.568854 0.62706,-1.182687 0.62706,-1.63777 a 0.19314583,0.19314583 0 0 0 -0.20373,-0.214313 c -0.22754,0 -0.82021,0.386292 -1.19592,0.955146 a 3.5030833,3.5030833 0 0 0 -0.44185,1.299104 c 0,0.124354 -0.0582,0.169333 -0.15875,0.169333 -0.10054,0 -0.26459,-0.04498 -0.4445,-0.04498 a 0.76464582,0.76464582 0 0 0 -0.33073,0.08996 0.04233333,0.04233333 0 0 1 -0.045,-0.04498 c 0,-0.04498 0.11377,-0.124354 0.20373,-0.306916 a 6.5987083,6.5987083 0 0 0 0.45508,-1.410229 c 0.30692,-1.116542 0.66146,-2.513542 0.74084,-2.77548 a 1.143,1.143 0 0 1 0.48947,-0.672041 0.60324999,0.60324999 0 0 1 -0.13758,0 2.2145625,2.2145625 0 0 1 -0.4101,-0.04498 l 0.0926,-0.124354 a 1.0080625,1.0080625 0 0 0 0.29633,0.03439 2.9104166,2.9104166 0 0 0 1.1483,-0.264583 l 0.045,0.08996 a 1.7806458,1.7806458 0 0 0 -0.52917,0.568855 c -0.30692,0.478895 -1.01865,3.219979 -1.01865,3.219979 z"
       id="path72" />
    <path
       style="stroke-width:0.264583"
       class="cls-3"
       d="m -223.04375,33.656134 c 0.45773,0 0.74083,0.193146 0.74083,0.510646 0,0.568854 -0.60325,0.978958 -1.28587,0.978958 -0.11377,0 -0.22754,-0.02117 -0.22754,-0.08996 0,-0.06879 0.0238,-0.04498 0.0582,-0.04498 a 1.0927292,1.0927292 0 0 0 0.96573,-1.013354 0.17197916,0.17197916 0 0 0 -0.18256,-0.193146 c -0.47625,0 -1.05833,0.910167 -1.05833,1.613958 0,0.513292 0.21696,0.73025 0.60325,0.73025 0.43391,0 0.82021,-0.455083 0.82021,-0.455083 l 0.0688,0.07937 c 0,0 -0.52917,0.669396 -1.28588,0.669396 -0.52916,0 -1.01335,-0.264584 -1.01335,-0.886354 a 2.0028958,2.0028958 0 0 1 1.79652,-1.899709 z"
       id="path74" />
    <path
       style="stroke-width:0.264583"
       class="cls-3"
       d="m -216.90013,29.557739 c -1.36525,0 -3.03741,1.23825 -3.03741,3.00302 0,0.79375 0.34131,1.455209 1.19591,1.455209 a 0.99747915,0.99747915 0 0 0 1.05834,-0.896938 c 0,-0.28575 -0.19315,-0.320146 -0.19315,-0.529167 a 0.26458333,0.26458333 0 0 1 0.29369,-0.293687 c 0.18256,0 0.33073,0.124354 0.33073,0.396875 a 1.5425208,1.5425208 0 0 1 -1.5584,1.513417 c -0.98954,0 -1.78593,-0.624417 -1.78593,-1.69598 0,-2.000249 1.91029,-3.137958 3.79941,-3.137958 1.78594,0 2.20663,0.420688 3.937,0.420688 a 1.9552708,1.9552708 0 0 0 1.15888,-0.341313 c 0.0582,-0.0344 0.0926,-0.06879 0.127,-0.06879 a 0.05291667,0.05291667 0 0 1 0.0556,0.05556 0.2143125,0.2143125 0 0 1 -0.0662,0.137583 c -0.18256,0.264584 -0.77523,1.000125 -1.38906,1.000125 a 3.5798125,3.5798125 0 0 1 -1.54781,-0.362479 c -0.61383,0.658813 -0.82021,1.661584 -0.98954,2.685521 a 4.3603333,4.3603333 0 0 0 1.09273,0.238125 1.5213541,1.5213541 0 0 0 0.86518,-0.341313 l 0.0794,0.07937 c -0.54769,0.613834 -0.87577,0.875771 -1.28588,0.875771 -0.34131,0 -0.60325,-0.227541 -0.8546,-0.396875 -0.13494,0.841375 -0.3519,1.852084 -0.73819,2.489729 -0.57944,0.955146 -1.39964,1.36525 -2.17223,1.36525 -0.92339,0 -1.18533,-0.465666 -1.18533,-0.658812 a 0.15875,0.15875 0 0 1 0.14817,-0.171979 0.13229166,0.13229166 0 0 1 0.13758,0.137583 0.56885416,0.56885416 0 0 0 0.63765,0.449792 c 0.66939,0 1.09008,-0.510646 1.53458,-1.444625 a 18.314458,18.314458 0 0 0 0.80698,-2.330979 1.3229166,1.3229166 0 0 0 -0.61384,0.124354 l -0.0344,-0.06879 a 1.8520833,1.8520833 0 0 1 0.75142,-0.375708 c 0.36512,-1.092729 0.79375,-2.182813 1.54781,-2.796646 a 4.6063958,4.6063958 0 0 0 -2.10609,-0.515937 z"
       id="path76" />
    <path
       style="stroke-width:0.264583"
       class="cls-3"
       d="m -212.47365,34.828238 a 4.9106666,4.9106666 0 0 0 -0.52916,1.455209 c 0,0.127 -0.0556,0.15875 -0.15875,0.15875 -0.10319,0 -0.23813,-0.03175 -0.4445,-0.03175 a 0.93927082,0.93927082 0 0 0 -0.3519,0.08996 0.05027083,0.05027083 0 0 1 -0.045,-0.04498 c 0,-0.04498 0.12436,-0.127 0.20373,-0.28575 a 8.0988957,8.0988957 0 0 0 0.61383,-1.934104 c 0,-0.100542 -0.0212,-0.169334 -0.12435,-0.169334 -0.10319,0 -0.47625,0.306917 -0.47625,0.306917 l -0.0688,-0.0926 c 0.16933,-0.15875 0.69321,-0.624417 1.05833,-0.624417 0.26459,0 0.41011,0.137584 0.41011,0.365125 a 2.0955,2.0955 0 0 1 -0.0926,0.568854 c 0.19315,-0.354541 0.71702,-0.933979 1.08215,-0.933979 a 0.37570833,0.37570833 0 0 1 0.39158,0.375709 0.41274999,0.41274999 0 0 1 -0.39687,0.4445 0.26458333,0.26458333 0 0 1 -0.28575,-0.264584 0.09260417,0.09260417 0 0 0 -0.09,-0.100541 c -0.21696,-0.01058 -0.41011,0.306916 -0.69586,0.71702 z"
       id="path78" />
    <path
       style="stroke-width:0.264583"
       class="cls-3"
       d="m -208.17152,36.034738 c 0.21431,0 0.52917,-0.341312 0.52917,-0.341312 l 0.0661,0.07937 c 0,0 -0.59531,0.664104 -0.98425,0.664104 a 0.49477083,0.49477083 0 0 1 -0.52917,-0.510646 1.8520833,1.8520833 0 0 1 0.0317,-0.410104 c -0.14552,0.330729 -0.7276,0.92075 -1.23825,0.92075 a 0.79374999,0.79374999 0 0 1 -0.8202,-0.841375 c 0,-1.0795 1.02393,-1.944687 1.77535,-1.944687 a 0.61912499,0.61912499 0 0 1 0.69321,0.529166 0.71172916,0.71172916 0 0 1 0.64823,-0.455083 1.0795,1.0795 0 0 0 0.54769,-0.203729 l 0.0556,0.113771 a 1.4499166,1.4499166 0 0 0 -0.51065,0.510645 5.5086249,5.5086249 0 0 0 -0.47889,1.672167 0.18785416,0.18785416 0 0 0 0.21431,0.216958 z m -0.82021,-0.809625 a 3.2993541,3.2993541 0 0 0 0.22754,-0.851958 c 0,-0.264583 -0.11377,-0.547687 -0.45508,-0.547687 -0.57944,0 -1.08215,0.992187 -1.08215,1.674812 0,0.420688 0.127,0.635 0.38894,0.635 0.26194,0 0.71702,-0.492125 0.92075,-0.910167 z"
       id="path80" />
    <path
       style="stroke-width:0.264583"
       class="cls-3"
       d="m -204.39063,35.169551 c -0.13758,0.529167 -0.26458,1.399646 -0.42068,2.206625 -0.18257,0.955146 -0.79375,1.5875 -1.73038,1.5875 -0.64823,0 -1.11389,-0.365125 -1.11389,-0.955146 a 0.55562499,0.55562499 0 0 1 0.50006,-0.579437 0.26458333,0.26458333 0 0 1 0.28575,0.264583 c 0,0.3175 -0.32015,0.386292 -0.32015,0.717021 a 0.42862499,0.42862499 0 0 0 0.46832,0.407458 c 0.84137,0 1.28322,-1.772708 1.61395,-3.344333 -0.15875,0.306916 -0.7276,0.955146 -1.26206,0.955146 a 0.79374999,0.79374999 0 0 1 -0.83079,-0.841375 c 0,-1.0795 1.02394,-1.944688 1.77535,-1.944688 a 0.61912499,0.61912499 0 0 1 0.69321,0.529167 0.71172916,0.71172916 0 0 1 0.64823,-0.455084 1.0795,1.0795 0 0 0 0.54769,-0.203729 l 0.0556,0.113771 a 1.793875,1.793875 0 0 0 -0.51064,0.510646 3.175,3.175 0 0 0 -0.39953,1.031875 z m -0.6932,0.05556 a 3.2993541,3.2993541 0 0 0 0.22754,-0.851958 c 0,-0.264583 -0.11377,-0.547687 -0.45509,-0.547687 -0.58208,0 -1.08214,0.992187 -1.08214,1.674812 0,0.420688 0.127,0.635 0.38629,0.635 0.25929,0 0.71173,-0.492125 0.9181,-0.910167 z"
       id="path82" />
    <path
       style="stroke-width:0.264583"
       class="cls-3"
       d="m -198.26288,34.076822 c 0,0.545041 -0.52916,1.023937 -0.52916,1.672166 0,0.193146 0.0794,0.28575 0.23812,0.28575 0.26459,0 0.55827,-0.341312 0.55827,-0.341312 l 0.0794,0.07937 c 0,0 -0.53975,0.664104 -1.13242,0.664104 a 0.52916666,0.52916666 0 0 1 -0.57944,-0.529167 c 0,-0.568854 0.63765,-1.182687 0.63765,-1.63777 0,-0.148167 -0.0662,-0.216959 -0.20373,-0.216959 -0.23812,0 -0.7276,0.320146 -1.10331,0.875771 a 4.3682708,4.3682708 0 0 0 -0.46567,1.36525 c 0,0.127 -0.0476,0.15875 -0.14816,0.15875 -0.10055,0 -0.26459,-0.03175 -0.43392,-0.03175 a 1.1244792,1.1244792 0 0 0 -0.28311,0.06615 c -0.0344,0 -0.045,0 -0.045,-0.04498 0,-0.04498 0.0899,-0.08996 0.15875,-0.264584 a 7.6014791,7.6014791 0 0 0 0.50006,-1.910291 c 0,-0.148167 -0.0688,-0.264584 -0.20373,-0.264584 -0.18256,0 -0.59267,0.354542 -0.97896,0.910167 a 4.4026666,4.4026666 0 0 0 -0.45508,1.36525 c 0,0.127 -0.0582,0.15875 -0.1614,0.15875 -0.10319,0 -0.23812,-0.03175 -0.44185,-0.03175 a 0.92074999,0.92074999 0 0 0 -0.3519,0.08996 0.05027083,0.05027083 0 0 1 -0.0476,-0.04498 c 0,-0.04498 0.13758,-0.127 0.20637,-0.28575 a 8.1491666,8.1491666 0 0 0 0.60325,-1.934104 c 0,-0.100542 -0.0476,-0.169333 -0.14817,-0.169333 -0.10054,0 -0.46831,0.306916 -0.46831,0.306916 l -0.0794,-0.0926 c 0.18256,-0.15875 0.70643,-0.624416 1.05833,-0.624416 0.26458,0 0.39952,0.137583 0.39952,0.365125 a 2.7013958,2.7013958 0 0 1 -0.19314,0.762 c 0.36512,-0.513292 0.93397,-1.127125 1.50283,-1.127125 a 0.42862499,0.42862499 0 0 1 0.48683,0.43127 3.175,3.175 0 0 1 -0.16933,0.79375 c 0.36512,-0.60325 1.1721,-1.227666 1.75154,-1.227666 a 0.42597916,0.42597916 0 0 1 0.44185,0.428625 z"
       id="path84" />
    <path
       style="stroke-width:0.264583"
       class="cls-3"
       d="m -195.83929,33.656134 c 0.45508,0 0.73819,0.193146 0.73819,0.510646 0,0.568854 -0.60325,0.978958 -1.28588,0.978958 -0.11377,0 -0.22754,-0.02117 -0.22754,-0.08996 0,-0.06879 0.0238,-0.04498 0.0582,-0.04498 a 1.0927292,1.0927292 0 0 0 0.96573,-1.013354 0.17197916,0.17197916 0 0 0 -0.18257,-0.193146 c -0.47625,0 -1.05833,0.910167 -1.05833,1.613958 0,0.513292 0.21431,0.73025 0.6006,0.73025 0.43392,0 0.82021,-0.455083 0.82021,-0.455083 l 0.0688,0.07937 c 0,0 -0.52916,0.669396 -1.28587,0.669396 -0.52917,0 -1.01335,-0.264584 -1.01335,-0.886354 a 2.0028958,2.0028958 0 0 1 1.80181,-1.899709 z"
       id="path86" />
    <path
       style="stroke-width:0.264583"
       class="cls-3"
       d="m -194.82858,36.455426 c 0,-0.04498 0.127,-0.127 0.20637,-0.28575 a 8.0988957,8.0988957 0 0 0 0.61383,-1.934104 c 0,-0.100542 -0.0238,-0.169334 -0.12435,-0.169334 -0.10054,0 -0.46831,0.306917 -0.46831,0.306917 l -0.0688,-0.0926 c 0.17198,-0.15875 0.6932,-0.624417 1.05833,-0.624417 0.26458,0 0.4101,0.137584 0.4101,0.365125 a 3.222625,3.222625 0 0 1 -0.20373,0.762 c 0.3863,-0.513291 1.19328,-1.127125 1.73832,-1.127125 a 0.42597916,0.42597916 0 0 1 0.4445,0.420688 c 0,0.545041 -0.52917,1.023937 -0.52917,1.672166 0,0.193146 0.0794,0.28575 0.22754,0.28575 0.26459,0 0.56886,-0.341312 0.56886,-0.341312 l 0.0688,0.07937 c 0,0 -0.53975,0.664104 -1.13242,0.664104 a 0.52916666,0.52916666 0 0 1 -0.59002,-0.529167 c 0,-0.568854 0.62442,-1.182687 0.62442,-1.63777 0,-0.148167 -0.0661,-0.216959 -0.20373,-0.216959 -0.20373,0 -0.79375,0.341313 -1.17211,0.910167 a 4.2756666,4.2756666 0 0 0 -0.46566,1.322917 c 0,0.127 -0.0582,0.15875 -0.1614,0.15875 -0.10319,0 -0.23812,-0.03175 -0.44185,-0.03175 a 0.92074999,0.92074999 0 0 0 -0.3519,0.08996 0.05027083,0.05027083 0 0 1 -0.0476,-0.04762 z"
       id="path88" />
    <path
       style="stroke-width:0.264583"
       class="cls-3"
       d="m -190.23013,33.359801 h 0.24871 c 0.15875,-0.558271 0.39952,-0.79375 0.82021,-0.899583 a 1.8785416,1.8785416 0 0 0 0.62442,-0.224896 l 0.0582,0.113771 a 1.3917083,1.3917083 0 0 0 -0.54769,0.529166 2.5823333,2.5823333 0 0 0 -0.22754,0.489479 h 0.82021 l -0.082,0.15875 h -0.79375 c -0.21695,0.738188 -0.50006,1.706563 -0.50006,2.069042 0,0.28575 0.0661,0.433917 0.29369,0.433917 a 1.0980208,1.0980208 0 0 0 0.62706,-0.341313 l 0.0688,0.07937 c 0,0 -0.60325,0.669396 -1.16152,0.669396 a 0.52916666,0.52916666 0 0 1 -0.60325,-0.590021 c 0,-0.399521 0.26459,-1.322916 0.55827,-2.320396 h -0.29633 z"
       id="path90" />
    <path
       style="stroke-width:0.264583"
       class="cls-3"
       d="m -186.61327,33.656134 c 0.45508,0 0.73819,0.193146 0.73819,0.510646 0,0.568854 -0.60325,0.978958 -1.28588,0.978958 -0.11377,0 -0.22754,-0.02117 -0.22754,-0.08996 0,-0.06879 0.0238,-0.04498 0.0582,-0.04498 a 1.0927292,1.0927292 0 0 0 0.96573,-1.013354 0.16933333,0.16933333 0 0 0 -0.17992,-0.193146 c -0.4789,0 -1.05833,0.910167 -1.05833,1.613958 0,0.513292 0.21431,0.73025 0.60325,0.73025 0.43127,0 0.81756,-0.455083 0.81756,-0.455083 l 0.0688,0.07937 c 0,0 -0.52917,0.669396 -1.28587,0.669396 -0.52917,0 -1.01336,-0.264584 -1.01336,-0.886354 a 2.0028958,2.0028958 0 0 1 1.79917,-1.899709 z"
       id="path92" />
    <path
       style="stroke-width:0.264583"
       class="cls-3"
       d="m -176.87396,31.174343 a 0.42333333,0.42333333 0 0 0 -0.381,0.185208 c -0.0847,0.100542 -0.16669,0.201083 -0.24606,0.304271 a 7.6517499,7.6517499 0 0 0 -0.43127,0.642937 8.0830207,8.0830207 0 0 0 -0.6694,1.389063 8.2444166,8.2444166 0 0 0 -0.39423,1.479021 8.5486874,8.5486874 0 0 0 -0.10583,1.513416 0.04233333,0.04233333 0 0 0 0.0423,0.04233 0.047625,0.047625 0 0 0 0.0423,-0.03704 10.583333,10.583333 0 0 1 0.30427,-1.455208 9.4244582,9.4244582 0 0 1 0.508,-1.37848 8.2708749,8.2708749 0 0 1 0.71702,-1.267354 7.1807916,7.1807916 0 0 1 0.43391,-0.579437 c 0.0767,-0.08996 0.15611,-0.179917 0.23813,-0.264583 a 0.40745833,0.40745833 0 0 0 0.14552,-0.351896 v -0.03175 a 0.20372916,0.20372916 0 0 0 -0.20373,-0.1905 z"
       id="path94" />
    <path
       style="stroke-width:0.264583"
       class="cls-3"
       d="m -172.90521,35.333593 a 3.4872083,3.4872083 0 0 0 2.11667,0.679979 3.175,3.175 0 0 0 1.143,-0.224896 c 0.35189,-0.148167 0.75406,-0.357188 0.89694,-0.73025 0.0476,-0.121708 -0.0476,-0.288396 -0.1958,-0.232833 -0.30956,0.11377 -0.57943,0.309562 -0.87312,0.420687 a 4.2333333,4.2333333 0 0 1 -0.98954,0.248708 5.3207708,5.3207708 0 0 1 -1.05834,0.0344 2.746375,2.746375 0 0 1 -0.99483,-0.219604 c -0.0317,-0.0053 -0.045,0.01323 -0.045,0.02381 z"
       id="path96" />
    <path
       style="stroke-width:0.264583"
       class="cls-3"
       d="m -172.11146,35.092822 a 2.3495,2.3495 0 0 0 1.43404,0.01852 2.4870833,2.4870833 0 0 0 0.68263,-0.322792 3.5692291,3.5692291 0 0 0 0.29104,-0.238125 1.0583333,1.0583333 0 0 0 0.21696,-0.3175 0.12170833,0.12170833 0 0 0 -0.17463,-0.15875 2.4421041,2.4421041 0 0 0 -0.26458,0.140229 c -0.0873,0.0635 -0.17727,0.121708 -0.26458,0.177271 a 5.6567916,5.6567916 0 0 1 -0.59796,0.322792 3.2808333,3.2808333 0 0 1 -1.32292,0.341312 c 0,0 0,0.03175 0,0.03704 z"
       id="path98" />
    <path
       style="stroke-width:0.264583"
       class="cls-3"
       d="m -171.21981,34.61128 a 5.2625624,5.2625624 0 0 0 0.61912,-0.383646 1.3890625,1.3890625 0 0 0 0.45773,-0.502708 0.10054167,0.10054167 0 0 0 -0.14023,-0.129646 2.0452291,2.0452291 0 0 0 -0.48948,0.428625 c -0.17198,0.171979 -0.30956,0.370417 -0.48154,0.545042 a 0.02727265,0.02727265 0 0 0 0.0344,0.04233 z"
       id="path100" />
    <path
       style="stroke-width:0.264583"
       class="cls-3"
       d="m -174.80227,31.674405 a 8.3290832,8.3290832 0 0 0 -1.32292,0.605896 c -0.21431,0.121708 -0.42333,0.248708 -0.62706,0.386292 a 4.1936458,4.1936458 0 0 0 -0.49742,0.362479 l -0.0847,0.06615 a 0.06614583,0.06614583 0 0 0 -0.0212,0.03175 l -0.0423,0.03704 a 4.9768124,4.9768124 0 0 0 -1.10861,1.645709 6.9797082,6.9797082 0 0 0 -0.51594,1.89177 6.9347291,6.9347291 0 0 1 0.5768,-1.878541 5.0270833,5.0270833 0 0 1 1.12977,-1.5875 l 0.0344,-0.03175 a 0.06614583,0.06614583 0 0 0 0.037,-0.01588 v 0 c 0.18786,-0.150813 0.381,-0.296334 0.58209,-0.431271 a 3.7041666,3.7041666 0 0 1 1.04246,-0.402167 4.3735624,4.3735624 0 0 1 0.96308,-0.09525 2.032,2.032 0 0 1 0.91017,0.216959 1.5875,1.5875 0 0 1 0.65352,0.642937 1.6933333,1.6933333 0 0 1 0.20902,0.891646 1.6615833,1.6615833 0 0 1 -0.26459,0.873125 1.4022916,1.4022916 0 0 1 -0.74877,0.547687 1.8653125,1.8653125 0 0 1 -0.94985,0.02646 1.0398125,1.0398125 0 0 1 -0.41275,-0.1905 0.62970833,0.62970833 0 0 1 -0.22754,-0.34925 0.66674999,0.66674999 0 0 1 0.33073,-0.73025 0.52916666,0.52916666 0 0 1 0.43127,-0.01588 1.222375,1.222375 0 0 1 0.40481,0.264583 1.0768542,1.0768542 0 0 0 -0.36777,-0.346604 0.62970833,0.62970833 0 0 0 -0.52917,-0.03969 0.79374999,0.79374999 0 0 0 -0.46831,0.915459 0.76993749,0.76993749 0 0 0 0.31485,0.452437 1.1959167,1.1959167 0 0 0 0.49478,0.182563 2.5373541,2.5373541 0 0 0 1.00806,-0.0635 1.8520833,1.8520833 0 0 0 0.33866,-0.137584 5.2175833,5.2175833 0 0 0 1.20121,-0.648229 7.2310624,7.2310624 0 0 0 1.19592,-1.132416 11.940646,11.940646 0 0 0 0.87312,-1.177396 8.5804374,8.5804374 0 0 1 0.67998,0.635 7.1728541,7.1728541 0 0 1 1.47638,2.423583 c 0.16933,0.447146 0.30692,0.907521 0.45773,1.367896 a 9.6440624,9.6440624 0 0 0 0.52916,1.370542 4.1486666,4.1486666 0 0 0 0.90753,1.203854 2.4209375,2.4209375 0 0 0 1.397,0.687916 1.6139583,1.6139583 0 0 0 0.81756,-0.153458 1.7118541,1.7118541 0 0 0 0.61912,-0.529167 1.920875,1.920875 0 0 0 0.31486,-1.529291 1.5875,1.5875 0 0 0 -0.37836,-0.701146 1.5187083,1.5187083 0 0 0 -0.6641,-0.41275 1.1800417,1.1800417 0 0 0 -0.76465,0.04762 1.571625,1.571625 0 0 0 -0.58473,0.441854 1.6271875,1.6271875 0 0 1 0.61648,-0.328083 1.0265833,1.0265833 0 0 1 0.65617,0.03969 1.3599583,1.3599583 0 0 1 0.51594,0.396875 1.2461875,1.2461875 0 0 1 0.26458,0.584729 1.5875,1.5875 0 0 1 -0.30956,1.211792 1.2065,1.2065 0 0 1 -1.05834,0.494771 1.6615833,1.6615833 0 0 1 -0.60589,-0.179917 3.1406041,3.1406041 0 0 1 -0.55563,-0.373062 3.8523333,3.8523333 0 0 1 -0.87577,-1.058334 c -0.4736,-0.809625 -0.71437,-1.759479 -1.08743,-2.645833 a 8.4111041,8.4111041 0 0 0 -0.65088,-1.322917 c -0.0873,-0.142875 -0.18256,-0.283104 -0.28046,-0.418041 a 5.8949166,5.8949166 0 0 0 0.71173,0.563562 7.8766457,7.8766457 0 0 0 1.66688,0.854604 l 0.21431,0.07937 0.11377,0.03969 h 0.0185 c -0.0688,-0.02117 -0.0556,-0.01852 0.037,0.01323 l 0.12965,0.03704 c 0.1561,0.04498 0.30956,0.08467 0.46566,0.124354 0.30957,0.07673 0.61913,0.142875 0.92869,0.203729 0.30956,0.06085 0.59531,0.116417 0.89694,0.156104 0.26458,0.03704 0.52917,0.07144 0.79375,0.119063 a 8.8397291,8.8397291 0 0 1 1.40494,0.365125 l -0.0952,-0.0344 c 0.15875,0.05556 0.32014,0.100542 0.47889,0.153458 a 5.8499374,5.8499374 0 0 1 0.7329,0.330729 l 0.17198,0.0979 0.082,0.05292 0.037,0.02646 v 0 a 2.6167291,2.6167291 0 0 1 0.31221,0.264584 c 0.045,0.04233 0.0873,0.08731 0.12964,0.134937 l 0.0317,0.0344 v 0 l 0.0609,0.07937 a 1.2726458,1.2726458 0 0 1 0.10583,0.15875 l 0.0423,0.08202 0.0159,0.03175 c 0,0 0.0159,0.03704 0.0185,0.04233 a 2.0452291,2.0452291 0 0 1 0.11642,0.367771 v 0.02381 a 0.26458333,0.26458333 0 0 1 0,0.04498 c 0,0.03175 0,0.0635 0,0.09525 0,0.03175 0,0.06614 0,0.100541 a 0.83608332,0.83608332 0 0 1 0,0.0926 0.52916666,0.52916666 0 0 1 -0.0979,0.280459 0.40745833,0.40745833 0 0 1 -0.24871,0.129646 0.18520833,0.18520833 0 0 1 -0.16933,-0.08996 0.26458333,0.26458333 0 0 1 0,-0.264583 c 0.0212,-0.04498 -0.0397,-0.07144 -0.0688,-0.0344 a 0.3889375,0.3889375 0 0 0 0.10583,0.558271 0.44185416,0.44185416 0 0 0 0.35719,0.02646 0.57679166,0.57679166 0 0 0 0.32808,-0.264583 1.2779375,1.2779375 0 0 0 0.11113,-0.828146 2.2939375,2.2939375 0 0 0 -0.11113,-0.415396 c -0.0265,-0.06879 -0.0556,-0.134937 -0.0873,-0.201083 0,0 -0.0238,-0.05556 0,-0.01323 a 0.46302083,0.46302083 0 0 0 -0.0344,-0.07408 l -0.0476,-0.0979 a 3.4104791,3.4104791 0 0 0 -1.21973,-1.21973 5.7626249,5.7626249 0 0 0 -0.75935,-0.39952 3.8973125,3.8973125 0 0 0 -0.48684,-0.164042 c -0.13493,-0.04233 -0.26458,-0.07937 -0.40746,-0.113771 a 20.962937,20.962937 0 0 0 -2.40241,-0.381 l 0.17198,-0.0291 0.1905,-0.04498 0.18256,-0.05556 0.18785,-0.07144 0.16669,-0.08202 0.16669,-0.100542 0.15346,-0.100541 0.14816,-0.129646 0.14288,-0.137584 0.28046,-0.407458 0.10318,-0.402167 -0.0291,-0.370416 -0.12435,-0.328084 -0.23284,-0.28575 -0.26458,-0.219604 -0.3175,-0.161396 -0.31485,-0.07673 -0.0847,0.01587 -0.0582,0.03704 v 0.03175 h 0.0476 l 0.26458,0.02646 0.2831,0.113771 0.2884,0.179917 0.23812,0.264583 0.15611,0.309563 0.0318,0.338666 -0.10584,0.375709 -0.30691,0.386291 -0.15875,0.134938 -0.14552,0.111125 -0.16404,0.108479 -0.16405,0.08467 -0.16139,0.06879 -0.16934,0.05821 -0.16933,0.05821 -0.17198,0.03175 -0.17727,0.02381 -0.17727,0.02117 -0.16933,0.01852 h -0.17463 -0.54504 -0.14552 c -0.0582,-0.01323 -0.11906,-0.02646 -0.17727,-0.0344 -0.15875,-0.01852 -0.3175,-0.05821 -0.47361,-0.08996 a 8.9720207,8.9720207 0 0 1 -0.91545,-0.246063 6.1251041,6.1251041 0 0 1 -0.83873,-0.346604 4.1539583,4.1539583 0 0 1 -0.76465,-0.508 3.8973125,3.8973125 0 0 1 -0.49212,-0.465667 v 0 l -0.0185,-0.01852 c -0.16934,-0.177271 -0.34661,-0.343959 -0.52917,-0.505355 l -0.18521,-0.150812 v -0.01323 c 0.30692,-0.470958 0.58738,-0.957792 0.85725,-1.449917 0.14288,-0.264583 0.2831,-0.529166 0.42333,-0.775229 l 0.19844,-0.367771 0.0476,-0.08731 v -0.01852 l 0.0132,-0.02381 0.10318,-0.185208 c 0.24342,-0.4445 0.508,-0.875771 0.76729,-1.309687 a 13.647208,13.647208 0 0 1 0.86255,-1.299105 c 0.15875,-0.20902 0.32543,-0.41275 0.5027,-0.608541 l 0.045,-0.04763 0.0212,-0.02381 -0.0159,0.01588 v -0.01323 0 c 0,0 0,0 0,0 l 0.14287,-0.145521 q 0.14023,-0.140229 0.28575,-0.264583 a 6.0007499,6.0007499 0 0 1 0.56092,-0.455083 6.3870416,6.3870416 0 0 1 0.72231,-0.439209 3.4395833,3.4395833 0 0 1 0.38894,-0.166687 c -0.0212,0 -0.0317,0 0,0 h 0.0212 -0.0185 l 0.0476,-0.01852 v 0 l 0.11112,-0.0344 0.26459,-0.06615 a 3.7650208,3.7650208 0 0 1 0.52916,-0.07144 2.0716875,2.0716875 0 0 1 0.26459,0 0.23547916,0.23547916 0 0 0 0.0609,0 v 0 c 0.0556,0 0.11113,0 0.16669,0.01587 a 1.9314583,1.9314583 0 0 1 0.61119,0.174625 0.22754166,0.22754166 0 0 1 0.0635,0.0291 c -0.0159,0 -0.0265,-0.01323 0,0 v 0 a 1.6007291,1.6007291 0 0 1 0.14552,0.08467 2.159,2.159 0 0 1 0.29104,0.227541 1.5875,1.5875 0 0 1 0.22489,0.264584 c 0.0185,0.02381 0.0318,0.05027 0.0503,0.07144 -0.0476,-0.06615 0,0.01588 0,0.02381 a 1.9817291,1.9817291 0 0 1 0.0952,0.182562 1.5054791,1.5054791 0 0 1 0.10319,0.325438 1.1959167,1.1959167 0 0 1 0.0212,0.166687 0.59002083,0.59002083 0 0 1 0,0.153458 1.2673542,1.2673542 0 0 1 -0.19579,0.61648 1.222375,1.222375 0 0 1 -0.21167,0.24077 0.28045833,0.28045833 0 0 1 -0.0609,0.05027 v 0 0 a 1.2461875,1.2461875 0 0 1 -0.127,0.07673 0.97895832,0.97895832 0 0 1 -0.90223,0 0.64029166,0.64029166 0 0 1 -0.34661,-0.759354 0.49212499,0.49212499 0 0 1 0.56886,-0.346604 0.238125,0.238125 0 0 1 0.15875,0.198438 0.23547916,0.23547916 0 0 0 -0.44186,0.08467 0.23547916,0.23547916 0 0 0 0.39159,0.198438 v 0 a 0.29897916,0.29897916 0 0 0 0.0873,-0.431271 0.48947916,0.48947916 0 0 0 -0.62971,-0.04498 c -0.46831,0.3175 -0.24342,0.957791 0,1.185333 a 0.94191665,0.94191665 0 0 0 0.93663,0.193146 1.3229166,1.3229166 0 0 0 0.81756,-0.661458 1.5875,1.5875 0 0 0 0.0661,-1.285875 2.1007916,2.1007916 0 0 0 -0.89693,-1.082146 3.1379583,3.1379583 0 0 0 -2.16694,-0.370417 4.1698333,4.1698333 0 0 0 -1.61925,0.627063 6.0854166,6.0854166 0 0 0 -1.20121,1.058333 11.707812,11.707812 0 0 0 -1.7145,2.645833 c -0.4789,0.981604 -0.88371,1.997604 -1.35467,2.9845 -0.12964,0.264584 -0.26458,0.529167 -0.40745,0.79375 -0.0582,-0.04233 -0.11378,-0.08467 -0.17463,-0.124354 a 4.1274999,4.1274999 0 0 0 -1.30969,-0.584729 5.1170416,5.1170416 0 0 0 -2.8866,0.264583 z m 8.49312,-5.582708 z m -5.64356,5.479521 a 3.9131875,3.9131875 0 0 1 1.28852,0.5715 c 0.0609,0.04233 0.12171,0.08996 0.18256,0.134937 -0.0952,0.169333 -0.19314,0.338667 -0.29897,0.502708 a 8.7312499,8.7312499 0 0 1 -1.01071,1.293813 6.5404999,6.5404999 0 0 1 -1.397,1.100667 1.1959167,1.1959167 0 0 0 0.16933,-0.177271 1.6086666,1.6086666 0 0 0 0.35983,-0.968375 1.8970625,1.8970625 0 0 0 -0.2487,-1.002771 1.7912291,1.7912291 0 0 0 -0.74613,-0.711729 2.1986875,2.1986875 0 0 0 -0.99748,-0.224896 4.4132499,4.4132499 0 0 0 -1.00277,0.111125 l -0.10848,0.0291 a 8.6915624,8.6915624 0 0 1 1.00542,-0.439208 4.9847499,4.9847499 0 0 1 2.80458,-0.219604 z"
       id="path102" />
    <path
       style="stroke-width:0.264583"
       class="cls-3"
       d="M -166.33296,26.118155 Z"
       id="path104" />
    <path
       style="stroke-width:0.264583"
       class="cls-3"
       d="m -170.67477,31.37278 c 0.17198,-0.346604 0.59531,-0.529166 0.26458,-0.899583 -0.09,-0.100542 -0.60325,-0.613833 -0.76729,-0.494771 v 0 l 0.1614,0.574146 -0.28575,-0.510646 c -0.18257,0.132292 -0.15611,0.439208 -0.1958,0.642938 -0.10318,0.613833 0.35984,0.53975 0.82286,0.687916 z"
       id="path106" />
    <path
       style="stroke-width:0.264583"
       class="cls-3"
       d="m -171.79925,30.806572 c 0.0767,-0.108479 0.46302,-0.722313 0.31221,-0.854604 v 0 l -0.52917,0.28575 0.43392,-0.394229 c -0.16934,-0.148167 -0.46038,-0.05556 -0.6694,-0.04763 -0.62177,0.02646 -0.44714,0.460375 -0.48948,0.944562 0.381,0.0926 0.66146,0.460375 0.94192,0.06615 z"
       id="path108" />
    <path
       style="stroke-width:0.264583"
       class="cls-3"
       d="m -172.47923,29.581551 c 0.127,0.04498 0.82285,0.243417 0.90752,0.0635 v 0 l -0.41804,-0.425979 0.49212,0.309562 c 0.0979,-0.203729 -0.0714,-0.460375 -0.13758,-0.658812 -0.19844,-0.587375 -0.56621,-0.298979 -1.0451,-0.206375 0.0212,0.383646 -0.25665,0.756708 0.20108,0.918104 z"
       id="path110" />
    <path
       style="stroke-width:0.264583"
       class="cls-3"
       d="m -171.48175,28.549676 c 0,0.134938 0,0.859896 0.20902,0.889 v 0 l 0.2831,-0.529167 -0.14816,0.563563 c 0.22225,0.03175 0.41539,-0.203729 0.58473,-0.325438 0.50535,-0.362479 0.12171,-0.629708 -0.10848,-1.058333 -0.36248,0.145521 -0.80169,-0.02117 -0.82021,0.460375 z"
       id="path112" />
    <path
       style="stroke-width:0.264583"
       class="cls-3"
       d="m -169.5741,29.695322 c -0.26459,-0.264583 -0.31221,-0.738188 -0.75936,-0.555625 -0.12435,0.05292 -0.77787,0.367771 -0.72231,0.558271 v 0 l 0.59531,0.03969 -0.57414,0.0979 c 0.0635,0.216958 0.35983,0.293688 0.52916,0.399521 0.55298,0.309562 0.63765,-0.148167 0.93134,-0.53975 z"
       id="path114" />
    <path
       style="stroke-width:0.264583"
       class="cls-3"
       d="m -171.38121,29.885822 a 0.15875,0.15875 0 0 0 0.21431,-0.07144 0.16139583,0.16139583 0 1 0 -0.28839,-0.142875 0.15875,0.15875 0 0 0 0.0741,0.214313 z"
       id="path116" />
    <path
       style="stroke-width:0.264583"
       class="cls-3"
       d="m -167.93898,29.650343 a 6.9558957,6.9558957 0 0 0 -0.71437,0.489479 c -0.16934,0.105833 -0.16934,0.201083 0.12435,0.124354 a 4.7783749,4.7783749 0 0 1 1.73302,-0.03175 2.50825,2.50825 0 0 0 1.66423,-0.280458 c 0.4789,-0.238125 0.762,-0.396875 1.24619,-0.119063 -0.35454,-0.944562 -1.53194,-2.116666 -2.65907,-1.899708 -0.73554,0.142875 -1.23295,0.828146 -1.70656,1.476375 a 1.8917708,1.8917708 0 0 0 -0.17991,0.296333 c 0,0 0.3122,-0.187854 0.45243,-0.264583 a 4.2042291,4.2042291 0 0 1 2.55059,-0.510646 c 0,0 0,0.01852 0,0.01588 a 4.4185416,4.4185416 0 0 0 -2.5109,0.703792 z"
       id="path118" />
    <path
       style="stroke-width:0.264583"
       class="cls-3"
       d="m -330.64185,32.013072 a 6.6145832,6.6145832 0 0 1 0.43391,0.579437 8.5116457,8.5116457 0 0 1 0.71967,1.267354 9.1201874,9.1201874 0 0 1 0.50535,1.37848 9.8636665,9.8636665 0 0 1 0.30428,1.455208 0.05027083,0.05027083 0 0 0 0.0423,0.03704 0.04497917,0.04497917 0 0 0 0.045,-0.04233 8.3079166,8.3079166 0 0 0 -0.10848,-1.513416 8.0301041,8.0301041 0 0 0 -0.39423,-1.479021 7.8925207,7.8925207 0 0 0 -0.6694,-1.389063 7.0670207,7.0670207 0 0 0 -0.4392,-0.632354 c -0.0794,-0.103187 -0.1614,-0.203729 -0.24607,-0.304271 a 0.42068749,0.42068749 0 0 0 -0.37835,-0.185208 0.20372916,0.20372916 0 0 0 -0.19315,0.187854 v 0.03175 a 0.39422916,0.39422916 0 0 0 0.14552,0.351896 c 0.0767,0.07673 0.15611,0.166688 0.23284,0.256646 z"
       id="path120" />
    <path
       style="stroke-width:0.264583"
       class="cls-3"
       d="m -334.81169,35.333593 c 0.0132,0 0,-0.02911 -0.0159,-0.02381 a 2.7331458,2.7331458 0 0 1 -0.99483,0.219604 5.3260624,5.3260624 0 0 1 -1.05834,-0.0344 4.3074166,4.3074166 0 0 1 -0.98954,-0.248708 c -0.29369,-0.111125 -0.56092,-0.306917 -0.87048,-0.420687 -0.14817,-0.05556 -0.24342,0.111125 -0.19579,0.232833 0.14287,0.373062 0.54504,0.582083 0.89694,0.73025 a 3.175,3.175 0 0 0 1.14035,0.224896 3.476625,3.476625 0 0 0 2.08756,-0.679979 z"
       id="path122" />
    <path
       style="stroke-width:0.264583"
       class="cls-3"
       d="m -338.04754,34.074176 c -0.10319,-0.05556 -0.23813,0.04498 -0.17727,0.15875 a 1.1086042,1.1086042 0 0 0 0.21696,0.3175 3.6062708,3.6062708 0 0 0 0.29368,0.238125 2.50825,2.50825 0 0 0 0.67998,0.325437 2.3495,2.3495 0 0 0 1.43405,-0.01852 0.01852083,0.01852083 0 0 0 0,-0.03704 3.27025,3.27025 0 0 1 -1.3044,-0.341313 5.6567916,5.6567916 0 0 1 -0.59796,-0.322791 c -0.0926,-0.05556 -0.17992,-0.113771 -0.26458,-0.177271 a 2.9924375,2.9924375 0 0 0 -0.28046,-0.142875 z"
       id="path124" />
    <path
       style="stroke-width:0.264583"
       class="cls-3"
       d="m -337.10562,34.227634 a 5.4901041,5.4901041 0 0 0 0.61912,0.383646 c 0.0265,0.01588 0.0609,-0.01852 0.037,-0.04233 -0.17198,-0.174625 -0.30956,-0.373063 -0.48154,-0.545042 a 2.0981458,2.0981458 0 0 0 -0.48948,-0.428625 0.10054167,0.10054167 0 0 0 -0.14287,0.129646 1.4366875,1.4366875 0 0 0 0.45773,0.502708 z"
       id="path126" />
    <path
       style="stroke-width:0.264583"
       class="cls-3"
       d="M -341.37071,26.118155 Z"
       id="path128" />
    <path
       style="stroke-width:0.264583"
       class="cls-3"
       d="m -337.30142,30.473197 c -0.32279,0.359833 0.10055,0.552979 0.26459,0.899583 0.46302,-0.148166 0.92339,-0.07408 0.81227,-0.685271 -0.037,-0.203729 -0.0132,-0.510645 -0.19579,-0.642937 l -0.26194,0.510646 0.1614,-0.574146 v 0 c -0.17728,-0.121708 -0.69057,0.391583 -0.78053,0.492125 z"
       id="path130" />
    <path
       style="stroke-width:0.264583"
       class="cls-3"
       d="m -334.96514,30.740426 c -0.045,-0.484187 0.12964,-0.918104 -0.48948,-0.944562 -0.20902,0 -0.50271,-0.100542 -0.6694,0.04763 l 0.43127,0.391583 -0.52917,-0.28575 v 0 c -0.15081,0.132292 0.23548,0.746125 0.31486,0.854604 0.2831,0.396875 0.56356,0.0291 0.94192,-0.0635 z"
       id="path132" />
    <path
       style="stroke-width:0.264583"
       class="cls-3"
       d="m -336.0711,28.867176 c -0.0661,0.198438 -0.23548,0.455083 -0.14023,0.658813 l 0.49477,-0.309563 -0.41804,0.425979 v 0 c 0.0847,0.179917 0.79375,-0.01852 0.91016,-0.0635 0.45509,-0.161396 0.17992,-0.529166 0.1958,-0.92075 -0.47625,-0.08996 -0.84667,-0.378354 -1.04246,0.209021 z"
       id="path134" />
    <path
       style="stroke-width:0.264583"
       class="cls-3"
       d="m -337.04477,28.089301 c -0.23019,0.431271 -0.61648,0.6985 -0.11112,1.058333 0.16933,0.121709 0.36512,0.357188 0.58737,0.325438 l -0.14817,-0.563563 0.28311,0.529167 v 0 c 0.19844,-0.0291 0.21166,-0.754062 0.20637,-0.889 -0.0159,-0.481542 -0.45508,-0.314854 -0.81756,-0.460375 z"
       id="path136" />
    <path
       style="stroke-width:0.264583"
       class="cls-3"
       d="m -338.13221,29.695322 c 0.29634,0.391583 0.39159,0.849312 0.92075,0.542396 0.18257,-0.105834 0.47625,-0.182563 0.5424,-0.399521 l -0.57415,-0.0979 0.59532,-0.03969 v 0 c 0.0582,-0.1905 -0.59532,-0.505355 -0.71967,-0.558271 -0.44979,-0.185209 -0.49213,0.277812 -0.76465,0.552979 z"
       id="path138" />
    <path
       style="stroke-width:0.264583"
       class="cls-3"
       d="m -336.32246,29.885822 a 0.16139583,0.16139583 0 1 0 -0.21696,-0.07144 0.16139583,0.16139583 0 0 0 0.21696,0.07144 z"
       id="path140" />
    <path
       style="stroke-width:0.264583"
       class="cls-3"
       d="m -339.725,29.446614 c 0.13758,0.07144 0.44979,0.264583 0.44979,0.264583 a 2.0214166,2.0214166 0 0 0 -0.17727,-0.296333 c -0.4736,-0.64823 -0.97102,-1.322917 -1.70656,-1.476375 -1.12713,-0.232834 -2.30717,0.949854 -2.667,1.883833 0.48419,-0.264583 0.76729,-0.119063 1.24883,0.119062 a 2.50825,2.50825 0 0 0 1.66159,0.291042 4.7810208,4.7810208 0 0 1 1.73302,0.03175 c 0.29368,0.07673 0.29368,-0.01852 0.12435,-0.124354 a 7.2575207,7.2575207 0 0 0 -0.71437,-0.489479 4.4264791,4.4264791 0 0 0 -2.5109,-0.6985 c 0,0 0,-0.01588 0,-0.01588 a 4.2121666,4.2121666 0 0 1 2.55852,0.510646 z"
       id="path142" />
    <path
       style="stroke-width:0.264583"
       class="cls-3"
       d="m -348.63087,37.328551 c -0.0317,0.06615 -0.0635,0.132292 -0.09,0.201083 a 2.2939375,2.2939375 0 0 0 -0.11113,0.415396 1.2964583,1.2964583 0 0 0 0.0926,0.812271 0.57679166,0.57679166 0 0 0 0.32808,0.264583 0.44185416,0.44185416 0 0 0 0.35719,-0.02646 0.3889375,0.3889375 0 0 0 0.10583,-0.558271 c -0.0265,-0.03704 -0.0873,0 -0.0661,0.0344 a 0.28575,0.28575 0 0 1 0,0.264583 0.18785416,0.18785416 0 0 1 -0.16934,0.08996 0.40216666,0.40216666 0 0 1 -0.24871,-0.129646 0.54768749,0.54768749 0 0 1 -0.10054,-0.280459 0.83608332,0.83608332 0 0 1 0,-0.0926 c 0,-0.0344 0,-0.06615 0,-0.100541 0,-0.0344 0,-0.0635 0,-0.09525 0,-0.03175 0,-0.0291 0,-0.04498 v -0.02381 a 1.6959791,1.6959791 0 0 1 0.11642,-0.367771 0.20372916,0.20372916 0 0 1 0.0185,-0.04233 0.16139583,0.16139583 0 0 1 0,-0.03175 l 0.045,-0.08202 a 1.6324791,1.6324791 0 0 1 0.10319,-0.15875 l 0.0635,-0.07937 v 0 l 0.0317,-0.0344 c 0.0423,-0.04763 0.0873,-0.0926 0.13229,-0.134937 a 2.8178125,2.8178125 0 0 1 0.30956,-0.264584 v 0 a 0.18785416,0.18785416 0 0 1 0.037,-0.02646 l 0.082,-0.05292 0.16934,-0.0979 a 5.8499374,5.8499374 0 0 1 0.74348,-0.333375 c 0.15875,-0.05292 0.32279,-0.0979 0.48154,-0.153458 l -0.0979,0.0344 a 8.8714791,8.8714791 0 0 1 1.40758,-0.365125 c 0.26459,-0.04763 0.52917,-0.08202 0.79375,-0.119063 0.26459,-0.03704 0.59796,-0.09789 0.8943,-0.156104 0.29633,-0.05821 0.62177,-0.127 0.92868,-0.203729 0.15611,-0.03969 0.31221,-0.07937 0.46832,-0.124354 l 0.12964,-0.03704 0.037,-0.01323 h 0.0185 l 0.11113,-0.03969 0.21431,-0.07938 a 7.8978124,7.8978124 0 0 0 1.68804,-0.851959 5.8658124,5.8658124 0 0 0 0.70909,-0.563562 c -0.0979,0.134937 -0.19315,0.264583 -0.28046,0.418041 a 8.6386457,8.6386457 0 0 0 -0.64823,1.322917 c -0.37306,0.896938 -0.61648,1.852083 -1.08744,2.645833 a 3.9475833,3.9475833 0 0 1 -0.87577,1.058334 3.159125,3.159125 0 0 1 -0.55827,0.373062 1.6457083,1.6457083 0 0 1 -0.6059,0.179917 1.2065,1.2065 0 0 1 -1.05833,-0.494771 1.5875,1.5875 0 0 1 -0.30956,-1.211792 1.2752917,1.2752917 0 0 1 0.26458,-0.584729 1.3678958,1.3678958 0 0 1 0.52917,-0.396875 1.0265833,1.0265833 0 0 1 0.65881,-0.02381 1.6457083,1.6457083 0 0 1 0.62971,0.320146 1.5875,1.5875 0 0 0 -0.58738,-0.441855 1.1800417,1.1800417 0 0 0 -0.76464,-0.04763 1.5319375,1.5319375 0 0 0 -0.66411,0.41275 1.5875,1.5875 0 0 0 -0.3757,0.701146 1.8997083,1.8997083 0 0 0 0.31485,1.529292 1.7118541,1.7118541 0 0 0 0.61913,0.529167 1.6086666,1.6086666 0 0 0 0.81491,0.153458 2.4209375,2.4209375 0 0 0 1.397,-0.687917 4.1036874,4.1036874 0 0 0 0.90752,-1.203854 9.3371457,9.3371457 0 0 0 0.52917,-1.370542 c 0.15081,-0.460375 0.29104,-0.92075 0.45773,-1.367895 a 7.1781457,7.1781457 0 0 1 1.47902,-2.423584 7.7496457,7.7496457 0 0 1 0.67998,-0.635 11.940646,11.940646 0 0 0 0.86783,1.185334 7.1278749,7.1278749 0 0 0 1.20386,1.140354 5.2175833,5.2175833 0 0 0 1.2012,0.648229 1.7832916,1.7832916 0 0 0 0.33867,0.137583 2.5347083,2.5347083 0 0 0 1.00806,0.0635 1.1853333,1.1853333 0 0 0 0.49213,-0.182562 0.74877082,0.74877082 0 0 0 0.31485,-0.452438 0.80697916,0.80697916 0 0 0 -0.47625,-0.918104 0.63499999,0.63499999 0 0 0 -0.52916,0.03969 1.0583333,1.0583333 0 0 0 -0.36513,0.346604 1.1853333,1.1853333 0 0 1 0.40217,-0.264584 0.52916666,0.52916666 0 0 1 0.43127,0.01588 0.66410416,0.66410416 0 0 1 0.33073,0.735542 0.61118749,0.61118749 0 0 1 -0.2249,0.34925 1.0583333,1.0583333 0 0 1 -0.41539,0.1905 1.8520833,1.8520833 0 0 1 -0.94721,-0.02646 1.3917083,1.3917083 0 0 1 -0.74877,-0.547688 1.7224375,1.7224375 0 0 1 -0.0688,-1.764771 1.5875,1.5875 0 0 1 0.65616,-0.642937 2.0134791,2.0134791 0 0 1 0.91017,-0.216958 4.3497499,4.3497499 0 0 1 0.96044,0.09525 3.7200416,3.7200416 0 0 1 1.05833,0.402166 c 0.19844,0.134938 0.39423,0.280459 0.58208,0.431271 v 0 a 0.05820833,0.05820833 0 0 0 0.0344,0.01588 l 0.037,0.03175 a 5.0270833,5.0270833 0 0 1 1.12713,1.5875 6.9400207,6.9400207 0 0 1 0.57943,1.878542 7.1754999,7.1754999 0 0 0 -0.51329,-1.907646 5.0270833,5.0270833 0 0 0 -1.1086,-1.645708 l -0.045,-0.03704 a 0.0635,0.0635 0 0 0 -0.0185,-0.03175 l -0.0873,-0.06615 a 3.96875,3.96875 0 0 0 -0.49477,-0.362479 c -0.20373,-0.137583 -0.41539,-0.264583 -0.62706,-0.386292 a 8.4375624,8.4375624 0 0 0 -1.32292,-0.605895 5.1196874,5.1196874 0 0 0 -2.8866,-0.264584 4.1169166,4.1169166 0 0 0 -1.34937,0.584729 c -0.0609,0.03969 -0.11642,0.08202 -0.17463,0.124354 -0.14287,-0.264583 -0.26458,-0.529166 -0.40481,-0.793749 -0.48684,-0.98425 -0.889,-2.00025 -1.35996,-2.981855 a 11.797771,11.797771 0 0 0 -1.7145,-2.645833 6.1647916,6.1647916 0 0 0 -1.20121,-1.058333 4.1804166,4.1804166 0 0 0 -1.62983,-0.632354 3.1379583,3.1379583 0 0 0 -2.16694,0.370416 2.1166666,2.1166666 0 0 0 -0.89694,1.082146 1.5875,1.5875 0 0 0 0.0661,1.285875 1.3229166,1.3229166 0 0 0 0.82021,0.661458 0.94456249,0.94456249 0 0 0 0.93662,-0.193145 c 0.24606,-0.227542 0.46831,-0.867834 0,-1.185334 a 0.48683333,0.48683333 0 0 0 -0.62706,0.04498 0.29897916,0.29897916 0 0 0 0.0847,0.431271 v 0 a 0.2301875,0.2301875 0 0 0 0.17991,0.06085 0.23547916,0.23547916 0 1 0 -0.0476,-0.468312 0.2301875,0.2301875 0 0 0 -0.18256,0.124354 0.23547916,0.23547916 0 0 1 0.1561,-0.198437 0.49477083,0.49477083 0 0 1 0.5715,0.346604 0.64558333,0.64558333 0 0 1 -0.3466,0.759354 0.98424999,0.98424999 0 0 1 -0.90488,0 1.2091458,1.2091458 0 0 1 -0.12435,-0.07673 v 0 0 a 0.50799999,0.50799999 0 0 1 -0.0609,-0.05027 1.1297708,1.1297708 0 0 1 -0.20902,-0.240771 1.2435417,1.2435417 0 0 1 -0.20637,-0.637646 0.73289582,0.73289582 0 0 1 0,-0.153458 1.2038542,1.2038542 0 0 1 0.0238,-0.166688 1.2620625,1.2620625 0 0 1 0.10319,-0.325437 c 0.0291,-0.0635 0.0608,-0.124354 0.0926,-0.182563 0,0 0.0608,-0.08996 0.0159,-0.02381 0.0159,-0.02117 0.0317,-0.04762 0.0476,-0.07144 a 1.905,1.905 0 0 1 0.2249,-0.264583 2.159,2.159 0 0 1 0.29104,-0.227542 1.6457083,1.6457083 0 0 1 0.14816,-0.08467 v 0 0 a 0.174625,0.174625 0 0 1 0.0635,-0.0291 1.9129375,1.9129375 0 0 1 0.61119,-0.174625 c 0.0529,0 0.11113,0 0.16404,-0.01587 v 0 a 0.2301875,0.2301875 0 0 0 0.0609,0 2.0716875,2.0716875 0 0 1 0.26458,0 3.7041666,3.7041666 0 0 1 0.52917,0.07144 l 0.26458,0.06615 0.11113,0.0344 v 0 l 0.0476,0.01852 h -0.0212 0.0238 c 0.0291,0.01323 0.0159,0 0,0 a 3.6591875,3.6591875 0 0 1 0.38893,0.166687 6.6304582,6.6304582 0 0 1 0.72232,0.439208 6.0007499,6.0007499 0 0 1 0.56091,0.455084 q 0.14552,0.129646 0.28575,0.264583 l 0.14288,0.145521 v 0 0 0.01323 -0.01588 l 0.0212,0.02381 0.0423,0.04763 c 0.17992,0.195791 0.34396,0.39952 0.50271,0.608541 a 13.673666,13.673666 0 0 1 0.86518,1.299104 c 0.26459,0.433917 0.52917,0.865188 0.7673,1.309688 l 0.10318,0.185208 a 0.10847917,0.10847917 0 0 0 0,0.02381 v 0.01852 l 0.0476,0.08731 c 0.0661,0.121708 0.13494,0.243417 0.20108,0.367771 0.13759,0.264583 0.26459,0.529167 0.42069,0.775229 0.26458,0.492125 0.55033,0.978958 0.85725,1.449917 v 0.01323 l -0.18521,0.150812 c -0.18521,0.161396 -0.36248,0.328084 -0.52917,0.505354 l -0.0185,0.01852 v 0 a 4.0639999,4.0639999 0 0 1 -0.48948,0.465667 4.2650833,4.2650833 0 0 1 -0.76729,0.494771 6.2362291,6.2362291 0 0 1 -0.83608,0.346604 9.0196457,9.0196457 0 0 1 -0.9181,0.246062 c -0.15346,0.03175 -0.31221,0.07144 -0.47096,0.08996 -0.0609,0 -0.11907,0.02117 -0.17727,0.0344 h -0.14552 -0.51594 -0.17463 l -0.16933,-0.01852 -0.17992,-0.02117 -0.17727,0.0053 -0.17198,-0.03175 -0.16668,-0.05821 -0.1614,-0.05027 -0.1614,-0.06879 -0.16668,-0.08467 -0.1614,-0.108479 -0.14552,-0.111125 -0.15875,-0.134937 -0.30692,-0.386292 -0.10848,-0.375708 0.0344,-0.338667 0.15346,-0.309563 0.24077,-0.264583 0.28575,-0.179917 0.28575,-0.11377 0.26458,-0.02646 h 0.0476 v -0.03175 l -0.0556,-0.03704 -0.0873,-0.01588 -0.32808,0.08202 -0.30692,0.166688 -0.26458,0.219604 -0.23548,0.28575 -0.12435,0.328083 -0.0265,0.370417 0.10318,0.402167 0.26459,0.407458 0.14287,0.137583 0.15082,0.129646 0.15081,0.100542 0.16933,0.100542 0.16404,0.08202 0.18786,0.07144 0.18521,0.05556 0.1905,0.04498 0.16933,0.0291 a 21.148146,21.148146 0 0 0 -2.40506,0.375708 c -0.13494,0.0344 -0.26459,0.07144 -0.40746,0.113771 a 4.0481249,4.0481249 0 0 0 -0.48684,0.164042 5.9346041,5.9346041 0 0 0 -0.75935,0.39952 3.4025416,3.4025416 0 0 0 -1.21708,1.21973 c -0.0185,0.03175 -0.0344,0.06614 -0.0503,0.0979 l -0.0344,0.07408 z m 7.23635,-11.247437 c -0.045,-0.04763 -0.0185,-0.01852 0,0 z m 4.35504,6.061604 a 3.9131875,3.9131875 0 0 1 1.28852,-0.5715 4.9873958,4.9873958 0 0 1 2.80459,0.219604 8.8582499,8.8582499 0 0 1 1.00277,0.439208 l -0.10848,-0.02646 a 4.3973749,4.3973749 0 0 0 -1.00277,-0.111125 2.1881041,2.1881041 0 0 0 -0.99484,0.224896 1.7753541,1.7753541 0 0 0 -0.74612,0.711729 1.87325,1.87325 0 0 0 -0.24871,1.002771 1.6245416,1.6245416 0 0 0 0.35719,0.968375 1.36525,1.36525 0 0 0 0.17198,0.17727 6.4743541,6.4743541 0 0 1 -1.397,-1.100666 8.5486874,8.5486874 0 0 1 -1.01071,-1.293813 c -0.10583,-0.164041 -0.20638,-0.333375 -0.30163,-0.502708 0.0609,-0.04763 0.12171,-0.09525 0.18521,-0.137583 z"
       id="path144" />
  </g>
</svg>
